# xmcd
#
# Track frame offsets:
#	150
#	14565
#	28977
#	50265
#	66417
#	78562
#	91077
#	106015
#	124975
#	136155
#	148615
#	162877
#
# Disc length: 2478 seconds
#
# Revision: 1
# Processed by: cddbd v1.5.2PL0 Copyright (c) Steve Scherf et al.
# Submitted via: EasyCDDAExtractor 6.2.0.3
#
DISCID=a009ac0c
DTITLE=The Juke Box Country Band - New Country - CD 1
DYEAR=1900
DGENRE=Country
TTITLE0=Boot's Scooting Boogie
TTITLE1=Achy Breaky Heart
TTITLE2=Friends And No Places
TTITLE3=Keep On Rolling
TTITLE4=Guitar Cadillac
TTITLE5=Your Cheating Heart
TTITLE6=Juke Box In My Mind
TTITLE7=She's My Wonder
TTITLE8=Crazy
TTITLE9=Good Hearted Woman
TTITLE10=I'm A Wild Man
TTITLE11=You Make Me Feel So Right
EXTD=
EXTT0=
EXTT1=
EXTT2=
EXTT3=
EXTT4=
EXTT5=
EXTT6=
EXTT7=
EXTT8=
EXTT9=
EXTT10=
EXTT11=
PLAYORDER=
